<svg width="27" height="21" viewBox="0 0 27 21" fill="none" xmlns="http://www.w3.org/2000/svg">
<path fill-rule="evenodd" clip-rule="evenodd" d="M26.9932 8.0076C26.9932 11.599 25.5069 14.847 23.1047 17.1949C20.7018 19.5417 17.3779 20.9939 13.7027 20.9945V21H13.7021V20.9945C10.0263 20.9939 6.70181 19.5417 4.30018 17.1943C1.8973 14.847 0.411673 11.599 0.411051 8.00821C0.411051 7.0973 1.16039 6.35753 2.09319 6.35753C3.02536 6.35753 3.78154 7.09609 3.78154 8.00699V8.00821C3.78154 10.6796 4.88783 13.1035 6.6875 14.8622C8.48655 16.6196 10.9672 17.7078 13.7021 17.7078V17.7011H13.7027V17.7078C16.4371 17.7078 18.9177 16.6196 20.7167 14.8622C22.5164 13.1035 23.6295 10.6796 23.6295 8.0076H23.6233V8.00699C23.6233 7.09609 24.3789 6.35753 25.3116 6.35753C26.2438 6.35753 27 7.09609 27 8.00699V8.0076H26.9932ZM19.4966 13.6691C18.0172 15.114 15.9694 16.0079 13.7027 16.0079V16.014H13.7021V16.0079C11.4348 16.0079 9.38701 15.114 7.90822 13.6691C6.42943 12.2235 5.51405 10.2221 5.51405 8.00821H5.50721V8.00699H5.51405C5.51405 5.79193 6.42943 3.79049 7.90822 2.34554C9.38701 0.900589 11.4348 0.00667553 13.7009 0.00667553V0H13.7021H13.7027V0.00667553C15.9688 0.00667553 18.0178 0.900589 19.4966 2.34614C20.9754 3.79109 21.8902 5.79193 21.8902 8.00639H21.897V8.00699V8.0076H21.8902C21.8902 10.2221 20.9754 12.2235 19.4966 13.6691ZM18.5265 8.00639C18.5265 6.71133 17.9849 5.53401 17.1093 4.67833C16.2331 3.82265 15.0285 3.29286 13.7027 3.29286V3.29953H13.7021H13.7009V3.29286C12.3757 3.29286 11.1711 3.82265 10.2955 4.67833C9.41934 5.53401 8.8777 6.71133 8.8777 8.00699H8.88392V8.00821H8.8777C8.8777 9.30326 9.41934 10.4806 10.2955 11.3363C11.1711 12.1919 12.3757 12.7217 13.7021 12.7217V12.7151H13.7027V12.7217C15.0285 12.7217 16.2331 12.1919 17.1087 11.3363C17.9849 10.4806 18.5265 9.30326 18.5265 8.0076H18.5203V8.00699V8.00639H18.5265ZM2.09567 5.61291C0.93839 5.61291 0 4.69532 0 3.56473C0 2.43414 0.93839 1.51717 2.09567 1.51717C3.25296 1.51717 4.19197 2.43414 4.19197 3.56473C4.19197 4.69532 3.25296 5.61291 2.09567 5.61291Z" fill="#EC0344"/>
</svg>
